# xmcd
#
# Track frame offsets:
#	150
#	7929
#	25605
#	42912
#	57292
#	74374
#	98788
#	111394
#	120655
#	135537
#	145614
#	163474
#
# Disc length: 2344 seconds
#
# Revision: 0
# Processed by: cddbd v1.5.2PL0 Copyright (c) Steve Scherf et al.
# Submitted via: audiograbber 1.83.01
#
DISCID=a009260c
DTITLE=José Feliciano  - Feliciano 
DYEAR=1900
DGENRE=Ballad
TTITLE0=Amor Jibaro
TTITLE1=First Of May
TTITLE2=The Windmills Of Your Mind 
TTITLE3=By The Time I Get To Phoenix
TTITLE4=Miss Otis Regrets
TTITLE5=Little Red Rooster
TTITLE6=Hey! Baby
TTITLE7=Somebody Else Is Taking My Place 
TTITLE8=Help! 
TTITLE9=Goody Goody
TTITLE10=And I Love Her
TTITLE11=Walk Right In
EXTD=
EXTT0=
EXTT1=
EXTT2=
EXTT3=
EXTT4=
EXTT5=
EXTT6=
EXTT7=
EXTT8=
EXTT9=
EXTT10=
EXTT11=
PLAYORDER=
